<?xml version="1.0" encoding="UTF-8" standalone="no"?>
<svg
   xmlns:dc="http://purl.org/dc/elements/1.1/"
   xmlns:cc="http://creativecommons.org/ns#"
   xmlns:rdf="http://www.w3.org/1999/02/22-rdf-syntax-ns#"
   xmlns:svg="http://www.w3.org/2000/svg"
   xmlns="http://www.w3.org/2000/svg"
   xmlns:sodipodi="http://sodipodi.sourceforge.net/DTD/sodipodi-0.dtd"
   xmlns:inkscape="http://www.inkscape.org/namespaces/inkscape"
   width="800"
   height="800"
   viewBox="0 0 800 800"
   version="1.1"
   id="svg2"
   inkscape:version="0.91 r"
   sodipodi:docname="agnium_base_white_red.svg"
   inkscape:export-filename="/home/mhaidarh/all/repo/agnium/agnium-brand/assets/png/agnium_base_white.png"
   inkscape:export-xdpi="90"
   inkscape:export-ydpi="90">
  <metadata
     id="metadata30">
    <rdf:RDF>
      <cc:Work
         rdf:about="">
        <dc:format>image/svg+xml</dc:format>
        <dc:type
           rdf:resource="http://purl.org/dc/dcmitype/StillImage" />
        <dc:title>Base White Agnium</dc:title>
      </cc:Work>
    </rdf:RDF>
  </metadata>
  <sodipodi:namedview
     pagecolor="#ffffff"
     bordercolor="#666666"
     borderopacity="1"
     objecttolerance="10"
     gridtolerance="10"
     guidetolerance="10"
     inkscape:pageopacity="0"
     inkscape:pageshadow="2"
     inkscape:window-width="1366"
     inkscape:window-height="744"
     id="namedview28"
     showgrid="false"
     inkscape:zoom="0.62408725"
     inkscape:cx="491.79722"
     inkscape:cy="492.03695"
     inkscape:window-x="0"
     inkscape:window-y="24"
     inkscape:window-maximized="1"
     inkscape:current-layer="layer1"
     inkscape:object-paths="true"
     inkscape:snap-smooth-nodes="true"
     inkscape:object-nodes="true"
     inkscape:snap-intersection-paths="true" />
  <!-- Generator: Sketch 3.0.3 (7892) - http://www.bohemiancoding.com/sketch -->
  <title
     id="title4">Base White Agnium</title>
  <desc
     id="desc6">Created with Sketch.</desc>
  <defs
     id="defs8">
    <filter
       x="-0.5"
       y="-0.5"
       width="2"
       height="2"
       filterUnits="objectBoundingBox"
       id="filter-1">
      <feOffset
         dx="2"
         dy="2"
         in="SourceAlpha"
         result="shadowOffsetOuter1"
         id="feOffset11" />
      <feGaussianBlur
         stdDeviation="2"
         in="shadowOffsetOuter1"
         result="shadowBlurOuter1"
         id="feGaussianBlur13" />
      <feColorMatrix
         values="0 0 0 0 0   0 0 0 0 0   0 0 0 0 0  0 0 0 0.35 0"
         in="shadowBlurOuter1"
         type="matrix"
         result="shadowMatrixOuter1"
         id="feColorMatrix15" />
      <feMerge
         id="feMerge17">
        <feMergeNode
           in="shadowMatrixOuter1"
           id="feMergeNode19" />
        <feMergeNode
           in="SourceGraphic"
           id="feMergeNode21" />
      </feMerge>
    </filter>
    <filter
       x="-0.5"
       y="-0.5"
       width="2"
       height="2"
       filterUnits="objectBoundingBox"
       id="filter-1-3">
      <feOffset
         dx="2"
         dy="2"
         in="SourceAlpha"
         result="shadowOffsetOuter1"
         id="feOffset11-3" />
      <feGaussianBlur
         stdDeviation="2"
         in="shadowOffsetOuter1"
         result="shadowBlurOuter1"
         id="feGaussianBlur13-9" />
      <feColorMatrix
         values="0 0 0 0 0   0 0 0 0 0   0 0 0 0 0  0 0 0 0.35 0"
         in="shadowBlurOuter1"
         type="matrix"
         result="shadowMatrixOuter1"
         id="feColorMatrix15-9" />
      <feMerge
         id="feMerge17-4">
        <feMergeNode
           in="shadowMatrixOuter1"
           id="feMergeNode19-9" />
        <feMergeNode
           in="SourceGraphic"
           id="feMergeNode21-8" />
      </feMerge>
    </filter>
  </defs>
  <g
     inkscape:groupmode="layer"
     id="layer3"
     inkscape:label="bg-red"
     style="display:inline"
     sodipodi:insensitive="true">
    <rect
       style="display:inline;opacity:1;fill:#b71c1c;fill-opacity:1;fill-rule:nonzero;stroke:none;stroke-width:0.99616069;stroke-linecap:butt;stroke-linejoin:bevel;stroke-miterlimit:4;stroke-dasharray:none;stroke-dashoffset:0;stroke-opacity:1"
       id="rect4167-7"
       width="800"
       height="800"
       x="0"
       y="0" />
  </g>
  <g
     inkscape:groupmode="layer"
     id="layer1"
     inkscape:label="base">
    <g
       transform="matrix(0.99999838,0,0,0.99999838,0.00137415,2.9334812e-4)"
       id="g4258">
      <path
         inkscape:connector-curvature="0"
         id="rect4149-1-4-8-8"
         d="m 399.77344,69.990234 c -7.1879,-0.11631 -12.42676,7.917566 -16.16016,24.603516 -21.599,84.55673 -83.70992,172.90559 -141.53516,244.43164 -57.82529,71.52605 -134.446,143.45881 -63.57226,276.48633 49.73562,79.54334 122.89,107.05157 184.2793,114.5 -16.112,-10.88569 -30.38111,-23.70387 -39.75391,-38.52539 -37.3041,-58.98983 -21.32617,-118.28125 -21.32617,-118.28125 0,0 46.03338,100.12709 115.76758,130.33789 22.79828,9.87687 41.21932,16.23346 56.96875,20.04492 40.3486,-25.49017 90.11714,-71.66419 119.33984,-161.11523 24.9202,-76.28078 -8.38668,-162.67867 -29.70898,-208.06055 0,0 0,-0.002 0,-0.002 l 0,-0.01 c -2.74164,16.08298 -6.60179,32.25928 -12.02735,46.69727 -21.2083,56.43676 -60.93359,60.04101 -60.93359,60.04101 0,0 33.90895,-4.0232 26.91015,-110.11133 -4.798,-72.7267 -37.06139,-168.27975 -63.96679,-214.88281 C 429.15429,93.014443 411.75344,70.184084 399.77344,69.990234 Z M 564.07227,354.39453 c -1.1e-4,6.3e-4 10e-5,0.001 0,0.002 0.72316,0.45806 1.46348,0.9378 2.21679,1.44141 -0.75409,-0.50412 -1.49292,-0.98488 -2.21679,-1.44336 z m 25.99218,21.51953 c 0.9991,1.01229 2.01183,2.05714 3.03516,3.13672 -1.02301,-1.07921 -2.03636,-2.12475 -3.03516,-3.13672 z m 3.03711,3.13867 c 3.06941,3.23821 6.24683,6.7855 9.52344,10.66797 -3.27727,-3.88326 -6.45345,-7.42924 -9.52344,-10.66797 z m 9.52344,10.66797 c 2.18485,2.58884 4.41261,5.32572 6.68359,8.22266 -2.27039,-2.89613 -4.4993,-5.63447 -6.68359,-8.22266 z m 6.68555,8.22461 c 3.33273,4.25144 6.6132,8.72553 9.73242,13.39453 -3.11926,-4.66897 -6.39968,-9.14314 -9.73242,-13.39453 z m 9.73437,13.39649 c 1.24738,1.86719 2.46962,3.76749 3.6582,5.69531 -1.18904,-1.92859 -2.41032,-3.8274 -3.6582,-5.69531 z m 3.6582,5.69531 c 3.56719,5.78577 6.83713,11.83503 9.6211,18.10351 -2.78375,-6.26764 -6.0544,-12.31847 -9.6211,-18.10351 z m 11.33204,22.16211 c 0.73398,1.81846 1.43289,3.65068 2.07617,5.50195 0.56228,1.61815 1.10728,3.22837 1.63281,4.83008 -0.52541,-1.60134 -1.06871,-3.21231 -1.63086,-4.83008 -0.64346,-1.85174 -1.34392,-3.68303 -2.07812,-5.50195 z m 6.64843,19.85351 c 3.59404,12.43494 6.07016,24.35663 7.5625,35.78321 -1.49216,-11.42707 -3.96831,-23.34776 -7.5625,-35.78321 z m 8.53516,44.64649 c 0.075,0.8508 0.13328,1.69397 0.19727,2.53906 -0.064,-0.84549 -0.12224,-1.68785 -0.19727,-2.53906 z m 0.33594,4.34961 c 0.18289,2.73736 0.30939,5.44387 0.3789,8.12109 -0.0694,-2.67685 -0.19612,-5.38413 -0.3789,-8.12109 z m 0.3789,8.12109 c 0.0707,2.72459 0.0837,5.41925 0.041,8.08203 0.0427,-2.66285 0.0297,-5.35737 -0.041,-8.08203 z m 0.041,8.08203 c -0.0136,0.85137 -0.0434,1.69399 -0.0684,2.53907 0.025,-0.84502 0.0547,-1.68777 0.0684,-2.53907 z m -0.29297,7.89649 c -0.0601,1.0289 -0.13418,2.04899 -0.21094,3.06836 0.0768,-1.01929 0.1508,-2.03953 0.21094,-3.06836 z m -173.08984,191.96094 -0.0117,0.004 0,0.002 c 0.004,9e-4 0.008,0.003 0.0117,0.004 0,0 0.0233,-0.008 0.0234,-0.008 -0.007,-2.1e-4 -0.0142,-0.002 -0.0234,-0.002 z"
         style="display:inline;opacity:1;fill:#ffffff;fill-opacity:1;fill-rule:nonzero;stroke:#000000;stroke-width:0.001;stroke-linecap:round;stroke-linejoin:round;stroke-miterlimit:4;stroke-dasharray:none;stroke-dashoffset:0;stroke-opacity:1" />
      <path
         inkscape:connector-curvature="0"
         id="rect4149-0-9-4-2-6"
         d="m 407.60352,72.806641 0,0.002 c 20.8657,34.249939 52.27522,96.894429 61.01562,214.902349 19.1478,258.52371 -76.47761,353.65151 -104.25391,377.12695 15.4566,15.9395 33.32713,30.13567 53.10743,38.70508 22.79828,9.87687 41.21932,16.23346 56.96875,20.04492 40.3486,-25.49017 90.11714,-71.66419 119.33984,-161.11523 24.9202,-76.28078 -8.38668,-162.67867 -29.70898,-208.06055 0,0 0,-0.002 0,-0.002 l 0,-0.01 c -2.74164,16.08298 -6.60179,32.25928 -12.02735,46.69727 -21.2083,56.43676 -60.93359,60.04101 -60.93359,60.04101 0,0 33.90895,-4.0232 26.91015,-110.11133 -4.798,-72.7267 -37.06139,-168.27975 -63.96679,-214.88281 -19.9333,-34.52677 -35.05937,-56.027652 -46.44727,-63.337892 l -0.004,0 z M 564.07227,354.39453 c -1.1e-4,6.3e-4 10e-5,0.001 0,0.002 0.72316,0.45806 1.46348,0.9378 2.21679,1.44141 -0.75409,-0.50412 -1.49292,-0.98488 -2.21679,-1.44336 z m 25.99218,21.51953 c 3.99639,4.04917 8.19086,8.62896 12.56055,13.80664 -4.37006,-5.17811 -8.56385,-9.75722 -12.56055,-13.80664 z M 602.625,389.7207 c 2.18485,2.58884 4.41261,5.32572 6.68359,8.22266 -2.27039,-2.89613 -4.4993,-5.63447 -6.68359,-8.22266 z m 6.68555,8.22461 c 3.33273,4.25144 6.6132,8.72553 9.73242,13.39453 -3.11928,-4.66897 -6.39968,-9.14314 -9.73242,-13.39453 z m 9.73437,13.39649 c 4.99101,7.47101 9.56771,15.44168 13.2793,23.79882 -3.71174,-8.35712 -8.28821,-16.32787 -13.2793,-23.79882 z m 14.63086,26.95117 c 0.87215,2.11323 1.68566,4.25013 2.43555,6.4082 0.56228,1.61815 1.10728,3.22837 1.63281,4.83008 -0.52541,-1.60134 -1.06871,-3.21231 -1.63086,-4.83008 -0.74987,-2.15807 -1.56536,-4.29497 -2.4375,-6.4082 z m 4.07031,11.24219 c 1.05055,3.20201 2.02688,6.37114 2.9336,9.50781 -0.9067,-3.13663 -1.88306,-6.30585 -2.9336,-9.50781 z m 2.9375,9.51757 c 3.59404,12.43494 6.07016,24.35663 7.5625,35.78321 -1.49216,-11.42707 -3.96831,-23.34776 -7.5625,-35.78321 z m 8.53516,44.64649 c 0.075,0.8508 0.13328,1.69397 0.19727,2.53906 -0.064,-0.84549 -0.12224,-1.68785 -0.19727,-2.53906 z m 0.33594,4.34961 c 0.18289,2.73736 0.30939,5.44387 0.3789,8.12109 -0.0694,-2.67685 -0.19612,-5.38413 -0.3789,-8.12109 z m 0.3789,8.12109 c 0.0707,2.72459 0.0837,5.41925 0.041,8.08203 0.0427,-2.66285 0.0297,-5.35737 -0.041,-8.08203 z m 0.041,8.08203 c -0.0136,0.85137 -0.0434,1.69399 -0.0684,2.53907 0.025,-0.84502 0.0547,-1.68777 0.0684,-2.53907 z m -0.29297,7.89649 c -0.0601,1.0289 -0.13418,2.04899 -0.21094,3.06836 0.0768,-1.01929 0.1508,-2.03953 0.21094,-3.06836 z m -173.08984,191.96094 -0.0117,0.004 0,0.002 c 0.004,9e-4 0.008,0.003 0.0117,0.004 0,0 0.0233,-0.008 0.0234,-0.008 -0.007,-2.1e-4 -0.0142,-0.002 -0.0234,-0.002 z"
         style="display:inline;opacity:1;fill:#e0e0e0;fill-opacity:1;fill-rule:nonzero;stroke:#000000;stroke-width:0.001;stroke-linecap:round;stroke-linejoin:round;stroke-miterlimit:4;stroke-dasharray:none;stroke-dashoffset:0;stroke-opacity:1" />
      <path
         id="rect4149-0-5-5-5-5-7"
         d="m 564.07323,354.39346 0,0.002 c -2e-4,10e-4 2e-4,0.003 0,0.004 0,0.003 0,0.006 0,0.01 3e-4,5.1e-4 -2e-4,10e-4 0,0.002 21.3223,45.38188 54.6284,131.78065 29.7082,208.06143 -29.2227,89.45104 -78.9908,135.62427 -119.3394,161.11444 0.7074,0.17116 1.4406,0.36712 2.1372,0.52796 6e-4,1.4e-4 0,-1.4e-4 0,0 l 0,-0.002 0.012,-0.004 c 0.01,4.1e-4 0.017,0.002 0.025,0.002 0.2825,-0.0881 231.4673,-72.28634 159.4954,-279.40975 -5.9991,-17.26455 -16.136,-33.15068 -26.8026,-46.75731 -18.1679,-23.17554 -33.6559,-36.21475 -45.2378,-43.55047 z"
         style="display:inline;opacity:1;fill:#9e9e9e;fill-opacity:1;fill-rule:nonzero;stroke:#000000;stroke-width:0.001;stroke-linecap:round;stroke-linejoin:round;stroke-miterlimit:4;stroke-dasharray:none;stroke-dashoffset:0;stroke-opacity:1"
         inkscape:connector-curvature="0" />
    </g>
  </g>
</svg>
