<?xml version="1.0" encoding="UTF-8" standalone="no"?>
<svg
   xmlns:dc="http://purl.org/dc/elements/1.1/"
   xmlns:cc="http://creativecommons.org/ns#"
   xmlns:rdf="http://www.w3.org/1999/02/22-rdf-syntax-ns#"
   xmlns:svg="http://www.w3.org/2000/svg"
   xmlns="http://www.w3.org/2000/svg"
   xmlns:sodipodi="http://sodipodi.sourceforge.net/DTD/sodipodi-0.dtd"
   xmlns:inkscape="http://www.inkscape.org/namespaces/inkscape"
   width="800"
   height="800"
   viewBox="0 0 800 800"
   version="1.1"
   id="svg2"
   inkscape:version="0.91 r"
   sodipodi:docname="agnium_base_white.svg"
   inkscape:export-filename="/home/mhaidarh/all/repo/agnium/agnium-brand/assets/png/agnium_base_white_red.png"
   inkscape:export-xdpi="96"
   inkscape:export-ydpi="96">
  <metadata
     id="metadata30">
    <rdf:RDF>
      <cc:Work
         rdf:about="">
        <dc:format>image/svg+xml</dc:format>
        <dc:type
           rdf:resource="http://purl.org/dc/dcmitype/StillImage" />
        <dc:title>Base White Agnium</dc:title>
      </cc:Work>
    </rdf:RDF>
  </metadata>
  <sodipodi:namedview
     pagecolor="#ffffff"
     bordercolor="#666666"
     borderopacity="1"
     objecttolerance="10"
     gridtolerance="10"
     guidetolerance="10"
     inkscape:pageopacity="0"
     inkscape:pageshadow="2"
     inkscape:window-width="1366"
     inkscape:window-height="744"
     id="namedview28"
     showgrid="false"
     inkscape:zoom="0.51101373"
     inkscape:cx="118.73947"
     inkscape:cy="456.97728"
     inkscape:window-x="0"
     inkscape:window-y="24"
     inkscape:window-maximized="1"
     inkscape:current-layer="layer1" />
  <!-- Generator: Sketch 3.0.3 (7892) - http://www.bohemiancoding.com/sketch -->
  <title
     id="title4">Base White Agnium</title>
  <desc
     id="desc6">Created with Sketch.</desc>
  <defs
     id="defs8">
    <filter
       x="-0.5"
       y="-0.5"
       width="2"
       height="2"
       filterUnits="objectBoundingBox"
       id="filter-1">
      <feOffset
         dx="2"
         dy="2"
         in="SourceAlpha"
         result="shadowOffsetOuter1"
         id="feOffset11" />
      <feGaussianBlur
         stdDeviation="2"
         in="shadowOffsetOuter1"
         result="shadowBlurOuter1"
         id="feGaussianBlur13" />
      <feColorMatrix
         values="0 0 0 0 0   0 0 0 0 0   0 0 0 0 0  0 0 0 0.35 0"
         in="shadowBlurOuter1"
         type="matrix"
         result="shadowMatrixOuter1"
         id="feColorMatrix15" />
      <feMerge
         id="feMerge17">
        <feMergeNode
           in="shadowMatrixOuter1"
           id="feMergeNode19" />
        <feMergeNode
           in="SourceGraphic"
           id="feMergeNode21" />
      </feMerge>
    </filter>
    <filter
       x="-0.5"
       y="-0.5"
       width="2"
       height="2"
       filterUnits="objectBoundingBox"
       id="filter-1-3">
      <feOffset
         dx="2"
         dy="2"
         in="SourceAlpha"
         result="shadowOffsetOuter1"
         id="feOffset11-3" />
      <feGaussianBlur
         stdDeviation="2"
         in="shadowOffsetOuter1"
         result="shadowBlurOuter1"
         id="feGaussianBlur13-9" />
      <feColorMatrix
         values="0 0 0 0 0   0 0 0 0 0   0 0 0 0 0  0 0 0 0.35 0"
         in="shadowBlurOuter1"
         type="matrix"
         result="shadowMatrixOuter1"
         id="feColorMatrix15-9" />
      <feMerge
         id="feMerge17-4">
        <feMergeNode
           in="shadowMatrixOuter1"
           id="feMergeNode19-9" />
        <feMergeNode
           in="SourceGraphic"
           id="feMergeNode21-8" />
      </feMerge>
    </filter>
  </defs>
  <g
     inkscape:groupmode="layer"
     id="layer3"
     inkscape:label="bg-red"
     sodipodi:insensitive="true"
     style="display:inline">
    <rect
       style="display:inline;opacity:1;fill:#c83333;fill-opacity:1;fill-rule:nonzero;stroke:none;stroke-width:0.99616069;stroke-linecap:butt;stroke-linejoin:bevel;stroke-miterlimit:4;stroke-dasharray:none;stroke-dashoffset:0;stroke-opacity:1"
       id="rect4167-7"
       width="800"
       height="800"
       x="0"
       y="0" />
  </g>
  <g
     inkscape:groupmode="layer"
     id="layer2"
     inkscape:label="bg-white"
     style="display:none"
     sodipodi:insensitive="true">
    <rect
       style="display:inline;opacity:1;fill:#ffffff;fill-opacity:1;fill-rule:nonzero;stroke:none;stroke-width:0.99616069;stroke-linecap:butt;stroke-linejoin:bevel;stroke-miterlimit:4;stroke-dasharray:none;stroke-dashoffset:0;stroke-opacity:1"
       id="rect4167"
       width="800"
       height="800"
       x="0"
       y="0" />
  </g>
  <g
     inkscape:groupmode="layer"
     id="layer1"
     inkscape:label="base">
    <g
       id="g4156">
      <path
         inkscape:connector-curvature="0"
         style="display:inline;opacity:1;fill:#fefefe;fill-opacity:1;fill-rule:nonzero;stroke:#590b0b;stroke-width:1;stroke-linecap:butt;stroke-linejoin:round;stroke-miterlimit:4;stroke-dasharray:none;stroke-dashoffset:0;stroke-opacity:1"
         d="m 399.96872,70.372691 c -7.1796,-0.11618 -12.4115,7.90759 -16.1406,24.57421 -21.574,84.458739 -83.6128,172.705279 -141.37114,244.148439 -57.75826,71.44316 -134.28965,143.29266 -63.49805,276.16602 49.67799,79.45116 122.74619,106.9274 184.06449,114.36719 -16.0933,-10.87307 -30.3451,-23.67613 -39.707,-38.48047 -37.2609,-58.92146 -21.3008,-118.14453 -21.3008,-118.14453 0,0 45.9794,100.01171 115.6328,130.1875 23.801,10.31126 42.8604,16.81474 59.0508,20.55273 0,0 229.9784,-71.6402 159.3359,-279.09375 -7.264,-16.74858 -16.1173,-33.11226 -26.7715,-46.70312 -18.1467,-23.14869 -33.6168,-36.17278 -45.1855,-43.5 -2.7385,16.06621 -6.5937,32.22743 -12.0137,46.65039 -21.1836,56.37136 -60.8633,59.9707 -60.8633,59.9707 0,0 33.8696,-4.01919 26.8789,-109.98438 -4.7923,-72.64242 -37.0184,-168.08375 -63.8925,-214.63281 -24.8715,-43.080109 -42.2527,-65.884499 -54.2188,-66.078119 z"
         id="rect4149-2" />
      <path
         inkscape:connector-curvature="0"
         id="rect4149-0"
         d="m 407.80132,73.193141 c 20.8415,34.210219 52.2131,96.783139 60.9434,214.654309 19.1266,258.23615 -76.3977,353.25071 -104.1368,376.69336 0.075,0.0771 0.1478,0.15539 0.2227,0.23242 0.5904,0.60723 1.1877,1.20867 1.7852,1.81055 0.3182,0.32059 0.6329,0.64391 0.9531,0.96289 0.1467,0.14613 0.2962,0.28976 0.4433,0.43554 0.7813,0.7743 1.5666,1.54469 2.3594,2.3086 0.2732,0.2632 0.5497,0.52326 0.8242,0.78515 0.6684,0.63757 1.3393,1.27292 2.0157,1.90235 0.4014,0.37353 0.8067,0.74277 1.2109,1.11328 0.5531,0.50702 1.1076,1.01257 1.666,1.51367 0.4264,0.38263 0.8558,0.7616 1.2852,1.14063 0.5968,0.52681 1.1962,1.05076 1.7988,1.57031 0.3772,0.32517 0.7553,0.64849 1.1348,0.9707 0.6243,0.53014 1.2524,1.05436 1.8828,1.57617 0.4118,0.34087 0.8239,0.68235 1.2383,1.01953 0.6003,0.4885 1.2048,0.97071 1.8105,1.45118 0.4283,0.33977 0.8542,0.68195 1.2852,1.01757 0.5766,0.44902 1.1589,0.88874 1.7402,1.33008 0.4825,0.3663 0.9635,0.73682 1.4492,1.09766 0,0.004 0.01,0.008 0.014,0.0117 1.0032,0.74507 2.0143,1.47848 3.0312,2.19922 0.2882,0.20423 0.5799,0.40131 0.8692,0.60351 0.7706,0.53871 1.542,1.07375 2.3203,1.59766 0.4535,0.3053 0.911,0.60222 1.3672,0.90234 0.616,0.40535 1.2327,0.80945 1.8535,1.20508 0.5077,0.32358 1.0185,0.64013 1.5293,0.95703 0.5793,0.35942 1.1608,0.7158 1.7441,1.06641 0.5251,0.31559 1.0518,0.62727 1.5801,0.93554 0.6072,0.35433 1.2167,0.70247 1.8281,1.04688 0.5034,0.28354 1.0075,0.56514 1.5137,0.8418 0.6356,0.34741 1.2741,0.68713 1.9141,1.02343 0.4908,0.2579 0.9812,0.51637 1.4746,0.76758 0.7619,0.38797 1.5288,0.76313 2.2969,1.13477 0.3654,0.17683 0.7288,0.36014 1.0957,0.5332 1.1602,0.54736 2.3262,1.07938 3.5,1.58789 23.801,10.31126 42.8603,16.81475 59.0507,20.55274 0,0 5.615,-1.74933 14.8204,-5.49219 3.6821,-1.49712 7.937,-3.31407 12.6386,-5.46485 1.1754,-0.53769 2.3804,-1.09601 3.6094,-1.67578 6.145,-2.89894 12.934,-6.32679 20.1152,-10.31445 4.3088,-2.3926 8.7589,-4.9869 13.295,-7.78906 4.536,-2.80216 9.1583,-5.81217 13.8125,-9.03711 57.2307,-39.65643 119.2438,-111.78094 84.4414,-228.65625 -0.1034,-0.34712 -0.1977,-0.69116 -0.3028,-1.03906 -0.4771,-1.57988 -0.9736,-3.16943 -1.4863,-4.76563 0,-0.008 -0.01,-0.0157 -0.01,-0.0234 -0.513,-1.5964 -1.0428,-3.19971 -1.5918,-4.8125 -1.8181,-4.19318 -3.7348,-8.36182 -5.7539,-12.46679 0,-0.003 0,-0.007 0,-0.01 -1.0081,-2.04903 -2.0419,-4.08195 -3.1016,-6.0957 -9e-4,-0.002 -10e-4,-0.004 0,-0.006 -0.5297,-1.00647 -1.0667,-2.008 -1.6094,-3.00391 -7e-4,-10e-4 -10e-4,-0.003 0,-0.004 -0.5427,-0.9959 -1.0925,-1.98654 -1.6484,-2.97071 -7e-4,-10e-4 -0.001,-0.003 0,-0.004 -0.5563,-0.98493 -1.1198,-1.96158 -1.6894,-2.9336 -3e-4,-4.8e-4 3e-4,-10e-4 0,-0.002 -0.5695,-0.97173 -1.1457,-1.93882 -1.7285,-2.89648 -5e-4,-7.7e-4 -10e-4,-10e-4 0,-0.002 -2.3328,-3.83288 -4.773,-7.54836 -7.3242,-11.10937 -5e-4,-7.5e-4 -10e-4,-10e-4 0,-0.002 -1.2759,-1.78084 -2.5783,-3.52184 -3.9101,-5.2207 -6.8047,-8.68029 -13.2333,-15.93739 -19.2207,-22.00391 -0.9979,-1.01115 -1.9839,-1.98943 -2.957,-2.93554 -0.9728,-0.94574 -1.9335,-1.86125 -2.8809,-2.74414 -4e-4,-3.4e-4 0,3.3e-4 0,0 -0.9473,-0.88286 -1.8813,-1.73642 -2.8027,-2.5586 -4e-4,-3.3e-4 0,3.4e-4 0,0 -1.8435,-1.64493 -3.6333,-3.17091 -5.3692,-4.58593 -1.7359,-1.41502 -3.4174,-2.71948 -5.041,-3.92188 -1.6236,-1.2024 -3.1889,-2.30152 -4.6953,-3.30859 -0.7532,-0.50354 -1.4918,-0.98346 -2.2149,-1.44141 -0.3423,2.00828 -0.7019,4.01773 -1.08,6.02539 -0.7563,4.01534 -1.5862,8.02224 -2.4961,11.99219 -0.455,1.98497 -0.9298,3.95899 -1.4258,5.92187 -0.992,3.92636 -2.0678,7.80074 -3.2344,11.59571 -0.5832,1.8972 -1.1888,3.77333 -1.8183,5.62695 -2e-4,5.8e-4 2e-4,0.001 0,0.002 -0.6295,1.85361 -1.2815,3.68346 -1.959,5.48633 -0.662,1.76161 -1.3428,3.47083 -2.0391,5.13086 -0.6963,1.66004 -1.4096,3.27057 -2.1367,4.83203 -0.7271,1.56147 -1.4683,3.07316 -2.2227,4.53906 -2.2631,4.3977 -4.6414,8.37323 -7.0859,11.96485 -0.8148,1.1972 -1.637,2.3512 -2.4648,3.46484 -0.8279,1.11365 -1.6607,2.18566 -2.4981,3.21875 -1.675,2.06662 -3.3649,3.97407 -5.0566,5.73633 -2.5371,2.64292 -5.0776,4.95845 -7.5723,6.98438 -2.4943,2.02546 -4.9427,3.76227 -7.2988,5.25195 -8e-4,4.7e-4 -10e-4,0.001 0,0.002 -1.5701,0.99268 -3.1009,1.87546 -4.5742,2.66016 -0.737,0.39255 -1.4605,0.76046 -2.168,1.10547 -1.4143,0.68965 -2.7661,1.28903 -4.041,1.80664 -1.2753,0.51783 -2.4747,0.95456 -3.582,1.32422 -0.5537,0.18482 -1.0835,0.35357 -1.5899,0.50585 -2.0254,0.60916 -3.6588,0.9692 -4.7851,1.17774 -1.1264,0.20852 -1.7461,0.26562 -1.7461,0.26562 0,0 0.5289,-0.064 1.4414,-0.38086 0.4562,-0.15843 1.0091,-0.38008 1.6387,-0.68945 0.9444,-0.46405 2.063,-1.12435 3.2949,-2.0625 1.2316,-0.93793 2.5768,-2.15347 3.9726,-3.72656 4e-4,-3.6e-4 -3e-4,-0.002 0,-0.002 1.3963,-1.57363 2.8439,-3.50452 4.2813,-5.875 1.4374,-2.37048 2.8652,-5.17911 4.2207,-8.50782 1.3555,-3.32871 2.6387,-7.17668 3.7891,-11.625 0.3834,-1.48277 0.7519,-3.03321 1.1035,-4.65234 1.0546,-4.85738 1.9553,-10.34104 2.6406,-16.5332 0.2284,-2.06406 0.4331,-4.20733 0.6113,-6.43164 0.3566,-4.44864 0.6078,-9.22406 0.7364,-14.34961 0.096,-3.84417 0.124,-7.88436 0.074,-12.13282 -0.017,-1.41615 -0.042,-2.85579 -0.076,-4.31835 -0.1359,-5.85028 -0.4127,-12.07445 -0.8496,-18.69727 -4.7923,-72.64242 -37.0184,-168.08376 -63.8926,-214.63281 -17.5347,-30.3721 -31.3423,-50.650899 -42.1582,-60.048839 -1.093,-0.93017 -2.1193,-1.74943 -3.0508,-2.41992 -0.024,-0.0173 -0.048,-0.0376 -0.072,-0.0547 -0.01,-0.006 -0.017,-0.0113 -0.025,-0.0176 -0.2344,-0.16741 -0.4529,-0.30944 -0.6758,-0.45899 -0.1339,-0.0892 -0.2675,-0.1744 -0.4004,-0.25976 z"
         style="display:inline;opacity:1;fill:#e4e4e4;fill-opacity:1;fill-rule:nonzero;stroke:#590b0b;stroke-width:1;stroke-linecap:butt;stroke-linejoin:round;stroke-miterlimit:4;stroke-dasharray:none;stroke-dashoffset:0;stroke-opacity:1" />
      <path
         inkscape:connector-curvature="0"
         id="rect4149-0-5"
         d="m 564.09582,354.45274 c -8e-4,0.005 0,0.009 0,0.0137 21.2976,45.32888 54.5654,131.62903 29.6738,207.82227 -29.1889,89.34738 -78.8992,135.4671 -119.2012,160.92773 0.7066,0.17096 1.4389,0.36668 2.1348,0.52734 6e-4,1.4e-4 0.001,-1.3e-4 0,0 0,0 0,-0.002 0,-0.002 0,0 0.012,-0.004 0.012,-0.004 0.043,-0.0135 5.635,-1.758 14.8047,-5.48633 3.6821,-1.49712 7.937,-3.31407 12.6386,-5.46485 1.1754,-0.53769 2.3804,-1.09601 3.6094,-1.67578 6.145,-2.89894 12.934,-6.32679 20.1152,-10.31445 4.3088,-2.3926 8.7589,-4.9869 13.295,-7.78906 4.536,-2.80216 9.1582,-5.81217 13.8125,-9.03711 57.2307,-39.65643 119.2438,-111.78094 84.4414,-228.65625 -0.1034,-0.34712 -0.1977,-0.69117 -0.3028,-1.03907 -0.4771,-1.57988 -0.9736,-3.16942 -1.4863,-4.76562 0,-0.008 -0.01,-0.0157 -0.01,-0.0234 -0.513,-1.5964 -1.0428,-3.19971 -1.5918,-4.8125 -1.8181,-4.19318 -3.7348,-8.36183 -5.7539,-12.4668 l 0,-0.01 c -1.0081,-2.04903 -2.0419,-4.08195 -3.1016,-6.0957 -9e-4,-0.002 -10e-4,-0.004 0,-0.006 -0.5297,-1.00647 -1.0667,-2.008 -1.6094,-3.00391 -7e-4,-0.001 -0.001,-0.003 0,-0.004 -0.5427,-0.9959 -1.0925,-1.98653 -1.6484,-2.9707 -7e-4,-10e-4 -10e-4,-0.003 0,-0.004 -0.5563,-0.98493 -1.1199,-1.96158 -1.6895,-2.9336 0,0 0,-0.002 0,-0.002 -0.5695,-0.97173 -1.1457,-1.93883 -1.7285,-2.89649 0,0 0,-0.002 0,-0.002 -2.3328,-3.83288 -4.773,-7.54836 -7.3242,-11.10937 0,0 0,-0.002 0,-0.002 -1.2759,-1.78084 -2.5784,-3.52184 -3.9102,-5.2207 -6.8047,-8.68029 -13.2333,-15.93739 -19.2207,-22.00391 -0.9979,-1.01115 -1.9839,-1.98943 -2.957,-2.93554 -0.9728,-0.94574 -1.9335,-1.86125 -2.8809,-2.74414 -0.9473,-0.88286 -1.8813,-1.73642 -2.8027,-2.5586 -1.8435,-1.64493 -3.6332,-3.17092 -5.3691,-4.58594 -1.7359,-1.41502 -3.4175,-2.71947 -5.0411,-3.92187 -1.6236,-1.2024 -3.1889,-2.30152 -4.6953,-3.30859 -0.7298,-0.48796 -1.4448,-0.95139 -2.1464,-1.39649 -0.022,-0.0129 -0.047,-0.0262 -0.068,-0.0391 z"
         style="display:inline;opacity:1;fill:#aaaaaa;fill-opacity:1;fill-rule:nonzero;stroke:#590b0b;stroke-width:1;stroke-linecap:butt;stroke-linejoin:round;stroke-miterlimit:4;stroke-dasharray:none;stroke-dashoffset:0;stroke-opacity:1" />
    </g>
  </g>
</svg>
