<?xml version="1.0" encoding="UTF-8" standalone="no"?>
<svg
   xmlns:sketch="http://www.bohemiancoding.com/sketch/ns"
   xmlns:dc="http://purl.org/dc/elements/1.1/"
   xmlns:cc="http://creativecommons.org/ns#"
   xmlns:rdf="http://www.w3.org/1999/02/22-rdf-syntax-ns#"
   xmlns:svg="http://www.w3.org/2000/svg"
   xmlns="http://www.w3.org/2000/svg"
   xmlns:sodipodi="http://sodipodi.sourceforge.net/DTD/sodipodi-0.dtd"
   xmlns:inkscape="http://www.inkscape.org/namespaces/inkscape"
   width="90mm"
   height="55mm"
   viewBox="0 0 340.15748 207.87402"
   version="1.1"
   id="svg2"
   inkscape:version="0.91 r"
   sodipodi:docname="agnium_card_a.svg"
   inkscape:export-filename="/home/mhaidarh/all/repo/agnium/agnium-brand/assets/png/agnium_card_a.png"
   inkscape:export-xdpi="300"
   inkscape:export-ydpi="300">
  <metadata
     id="metadata30">
    <rdf:RDF>
      <cc:Work
         rdf:about="">
        <dc:format>image/svg+xml</dc:format>
        <dc:type
           rdf:resource="http://purl.org/dc/dcmitype/StillImage" />
        <dc:title>Agnium Brand Asset</dc:title>
      </cc:Work>
    </rdf:RDF>
  </metadata>
  <sodipodi:namedview
     pagecolor="#ffffff"
     bordercolor="#666666"
     borderopacity="1"
     objecttolerance="10"
     gridtolerance="10"
     guidetolerance="10"
     inkscape:pageopacity="0"
     inkscape:pageshadow="2"
     inkscape:window-width="1366"
     inkscape:window-height="744"
     id="namedview28"
     showgrid="false"
     inkscape:zoom="1.2735251"
     inkscape:cx="170.57524"
     inkscape:cy="-73.653356"
     inkscape:window-x="0"
     inkscape:window-y="24"
     inkscape:window-maximized="1"
     inkscape:current-layer="layer1"
     inkscape:snap-bbox="true"
     inkscape:bbox-paths="true"
     inkscape:bbox-nodes="true"
     inkscape:snap-bbox-edge-midpoints="true"
     inkscape:snap-bbox-midpoints="true"
     inkscape:object-nodes="true"
     inkscape:snap-intersection-paths="true"
     inkscape:snap-smooth-nodes="true"
     inkscape:object-paths="true"
     showguides="true"
     inkscape:snap-page="true"
     units="mm"
     inkscape:document-units="mm" />
  <!-- Generator: Sketch 3.0.3 (7892) - http://www.bohemiancoding.com/sketch -->
  <title
     id="title4">Agnium Brand Asset</title>
  <desc
     id="desc6">Created with Sketch.</desc>
  <defs
     id="defs8">
    <filter
       x="-0.5"
       y="-0.5"
       width="2"
       height="2"
       filterUnits="objectBoundingBox"
       id="filter-1">
      <feOffset
         dx="2"
         dy="2"
         in="SourceAlpha"
         result="shadowOffsetOuter1"
         id="feOffset11" />
      <feGaussianBlur
         stdDeviation="2"
         in="shadowOffsetOuter1"
         result="shadowBlurOuter1"
         id="feGaussianBlur13" />
      <feColorMatrix
         values="0 0 0 0 0   0 0 0 0 0   0 0 0 0 0  0 0 0 0.35 0"
         in="shadowBlurOuter1"
         type="matrix"
         result="shadowMatrixOuter1"
         id="feColorMatrix15" />
      <feMerge
         id="feMerge17">
        <feMergeNode
           in="shadowMatrixOuter1"
           id="feMergeNode19" />
        <feMergeNode
           in="SourceGraphic"
           id="feMergeNode21" />
      </feMerge>
    </filter>
    <clipPath
       clipPathUnits="userSpaceOnUse"
       id="clipPath4395">
      <path
         id="path4397"
         d="m 1868.9474,-181.81589 c -23.2329,-0.20397 -40.1633,13.9573 -52.2304,43.37512 -69.8128,149.075673 -270.5683,304.83732 -457.472,430.93946 -186.9037,126.10253 -434.55653,252.92203 -205.4773,487.45331 160.7564,140.23685 397.2024,188.7343 595.6261,201.8661 -52.0775,-19.19162 -98.1956,-41.78992 -128.4907,-67.92075 -120.5745,-104.00068 -68.9287,-208.53361 -68.9287,-208.53361 0,0 148.788,176.52807 374.1839,229.79033 77.0192,18.20026 138.6946,29.67913 191.0866,36.27697 0,0 744.2022,-126.45004 515.6055,-492.62066 -23.5062,-29.56252 -52.1552,-58.4454 -86.6312,-82.43416 -58.7226,-40.85936 -108.7834,-63.8479 -146.2191,-76.78073 -8.8618,28.35794 -21.3371,56.88368 -38.876,82.34141 -68.5494,99.49949 -196.9513,105.85257 -196.9513,105.85257 0,0 109.6009,-7.0943 86.9792,-194.13027 C 2235.6441,185.44 2131.3618,16.97913 2044.3976,-65.183325 1963.9142,-141.22284 1907.6691,-181.47414 1868.9474,-181.81589 Z"
         style="display:inline;opacity:1;fill:#000000;fill-opacity:1;fill-rule:nonzero;stroke:none;stroke-width:2.38991857;stroke-linecap:butt;stroke-linejoin:miter;stroke-miterlimit:4;stroke-dasharray:none;stroke-dashoffset:0;stroke-opacity:1"
         inkscape:connector-curvature="0" />
    </clipPath>
    <clipPath
       clipPathUnits="userSpaceOnUse"
       id="clipPath4395-5">
      <path
         id="path4397-0"
         d="m 1868.9474,-181.81589 c -23.2329,-0.20397 -40.1633,13.9573 -52.2304,43.37512 -69.8128,149.075673 -270.5683,304.83732 -457.472,430.93946 -186.9037,126.10253 -434.55653,252.92203 -205.4773,487.45331 160.7564,140.23685 397.2024,188.7343 595.6261,201.8661 -52.0775,-19.19162 -98.1956,-41.78992 -128.4907,-67.92075 -120.5745,-104.00068 -68.9287,-208.53361 -68.9287,-208.53361 0,0 148.788,176.52807 374.1839,229.79033 77.0192,18.20026 138.6946,29.67913 191.0866,36.27697 0,0 744.2022,-126.45004 515.6055,-492.62066 -23.5062,-29.56252 -52.1552,-58.4454 -86.6312,-82.43416 -58.7226,-40.85936 -108.7834,-63.8479 -146.2191,-76.78073 -8.8618,28.35794 -21.3371,56.88368 -38.876,82.34141 -68.5494,99.49949 -196.9513,105.85257 -196.9513,105.85257 0,0 109.6009,-7.0943 86.9792,-194.13027 C 2235.6441,185.44 2131.3618,16.97913 2044.3976,-65.183325 1963.9142,-141.22284 1907.6691,-181.47414 1868.9474,-181.81589 z"
         style="fill:#000000;fill-opacity:1;fill-rule:nonzero;stroke:none;display:inline"
         inkscape:connector-curvature="0" />
    </clipPath>
  </defs>
  <g
     inkscape:groupmode="layer"
     id="layer2"
     inkscape:label="bg"
     style="display:inline"
     transform="translate(0,-592.12598)" />
  <g
     inkscape:groupmode="layer"
     id="layer1"
     inkscape:label="base"
     style="display:inline"
     transform="translate(0,-592.12598)">
    <g
       style="display:inline"
       id="g4249-1-3"
       transform="translate(-42.608814,1702.5518)" />
    <text
       xml:space="preserve"
       style="font-style:normal;font-variant:normal;font-weight:normal;font-stretch:normal;font-size:24.49532127px;line-height:125%;font-family:Roboto;-inkscape-font-specification:Roboto;letter-spacing:0px;word-spacing:0px;display:inline;fill:#ffffff;fill-opacity:1;stroke:none;stroke-width:0.11482183px;stroke-linecap:butt;stroke-linejoin:miter;stroke-opacity:1"
       x="170.16208"
       y="1005.7581"
       id="text4152-4-7-3-3-1"
       sodipodi:linespacing="125%"><tspan
         sodipodi:role="line"
         id="tspan4154-8-3-3-5-3"
         x="170.16208"
         y="1005.7581"
         style="font-style:normal;font-variant:normal;font-weight:normal;font-stretch:normal;font-size:13.33333397px;font-family:'SF UI Text';-inkscape-font-specification:'SF UI Text';text-align:center;text-anchor:middle;fill:#ffffff;fill-opacity:1;stroke:none;stroke-width:0.11482183px;stroke-opacity:1" /></text>
    <text
       xml:space="preserve"
       style="font-style:normal;font-variant:normal;font-weight:normal;font-stretch:normal;font-size:24.49532127px;line-height:125%;font-family:Roboto;-inkscape-font-specification:Roboto;letter-spacing:0px;word-spacing:0px;display:inline;fill:#ffffff;fill-opacity:1;stroke:none;stroke-width:0.11482183px;stroke-linecap:butt;stroke-linejoin:miter;stroke-opacity:1"
       x="170.16208"
       y="990.75812"
       id="text4152-4-7-3-3-1-7"
       sodipodi:linespacing="125%"><tspan
         sodipodi:role="line"
         id="tspan4154-8-3-3-5-3-8"
         x="170.16208"
         y="990.75812"
         style="font-style:normal;font-variant:normal;font-weight:normal;font-stretch:normal;font-size:13.33333397px;font-family:'SF UI Text';-inkscape-font-specification:'SF UI Text';text-align:center;text-anchor:middle;fill:#ffffff;fill-opacity:1;stroke:none;stroke-width:0.11482183px;stroke-opacity:1" /></text>
    <g
       style="display:inline"
       id="g4171"
       transform="matrix(0.14173229,0,0,0.25984253,-1.8655834e-5,592.12598)"
       inkscape:export-xdpi="300"
       inkscape:export-ydpi="300"
       inkscape:export-filename="/home/mhaidarh/all/repo/agnium/agnium-brand/assets/png/agnium_card_a.png">
      <rect
         y="0"
         x="0"
         height="800"
         width="2400"
         id="rect4265"
         style="display:inline;fill:#c83333;fill-opacity:1;fill-rule:nonzero;stroke:none" />
    </g>
    <text
       xml:space="preserve"
       style="font-style:normal;font-variant:normal;font-weight:normal;font-stretch:normal;font-size:24.49532318px;line-height:125%;font-family:Roboto;-inkscape-font-specification:Roboto;letter-spacing:0px;word-spacing:0px;display:inline;fill:#ffffff;fill-opacity:1;stroke:none"
       x="170.49019"
       y="746.76172"
       id="text4152-4-7-3-3-1-9"
       sodipodi:linespacing="125%"
       inkscape:export-xdpi="300"
       inkscape:export-ydpi="300"
       inkscape:export-filename="/home/mhaidarh/all/repo/agnium/agnium-brand/assets/png/agnium_card_a.png"><tspan
         sodipodi:role="line"
         id="tspan4154-8-3-3-5-3-1"
         x="170.49019"
         y="746.76172"
         style="font-style:normal;font-variant:normal;font-weight:normal;font-stretch:normal;font-size:10.66666794px;font-family:'SF UI Text';-inkscape-font-specification:'SF UI Text';text-align:center;text-anchor:middle;fill:#ffffff;fill-opacity:1;stroke:none"><tspan
   style="font-style:normal;font-variant:normal;font-weight:normal;font-stretch:normal;font-size:10.66666794px;font-family:FontAwesome;-inkscape-font-specification:FontAwesome"
   id="tspan4215"></tspan>  agnium.co.id</tspan><tspan
         sodipodi:role="line"
         x="170.49019"
         y="760.88531"
         style="font-style:normal;font-variant:normal;font-weight:normal;font-stretch:normal;font-size:10.66666794px;font-family:'SF UI Text';-inkscape-font-specification:'SF UI Text';text-align:center;text-anchor:middle;fill:#ffffff;fill-opacity:1;stroke:none"
         id="tspan4188"><tspan
   style="font-style:normal;font-variant:normal;font-weight:normal;font-stretch:normal;font-family:FontAwesome;-inkscape-font-specification:FontAwesome"
   id="tspan4210"></tspan>  (+62-21) 2963-6703</tspan><tspan
         sodipodi:role="line"
         x="170.49019"
         y="775.00891"
         style="font-style:normal;font-variant:normal;font-weight:normal;font-stretch:normal;font-size:10.66666794px;font-family:'SF UI Text';-inkscape-font-specification:'SF UI Text';text-align:center;text-anchor:middle;fill:#ffffff;fill-opacity:1;stroke:none"
         id="tspan4192"><tspan
   style="font-style:normal;font-variant:normal;font-weight:normal;font-stretch:normal;font-family:FontAwesome;-inkscape-font-specification:FontAwesome"
   id="tspan4200"></tspan>  Level 38, Office Tower 88, Kota Kasablanka</tspan><tspan
         sodipodi:role="line"
         x="170.49019"
         y="788.34229"
         style="font-style:normal;font-variant:normal;font-weight:normal;font-stretch:normal;font-size:10.66666794px;font-family:'SF UI Text';-inkscape-font-specification:'SF UI Text';text-align:center;text-anchor:middle;fill:#ffffff;fill-opacity:1;stroke:none"
         id="tspan4196">Jl. Casablanca Raya Kav 88, Jakarta 12870, Indonesia</tspan></text>
    <g
       style="display:inline"
       id="g4179"
       transform="matrix(0.48466239,0,0,0.48466239,26.394315,325.78148)"
       inkscape:export-xdpi="300"
       inkscape:export-ydpi="300"
       inkscape:export-filename="/home/mhaidarh/all/repo/agnium/agnium-brand/assets/png/agnium_card_a.png">
      <g
         transform="matrix(0.23622048,0,0,0.23622048,0.34784335,611.62641)"
         id="g4249">
        <text
           xml:space="preserve"
           style="font-size:213.95689392px;font-style:normal;font-variant:normal;font-weight:normal;font-stretch:normal;line-height:125%;letter-spacing:0px;word-spacing:0px;fill:#ffffff;fill-opacity:1;stroke:none;display:inline;font-family:Roboto;-inkscape-font-specification:Roboto"
           x="726.14014"
           y="680.62592"
           id="text4152-4-7-3"
           sodipodi:linespacing="125%"><tspan
             sodipodi:role="line"
             id="tspan4154-8-3-3"
             x="726.14014"
             y="680.62592"
             style="font-size:104px;font-style:normal;font-variant:normal;font-weight:normal;font-stretch:normal;fill:#ffffff;fill-opacity:1;stroke:none;font-family:SF UI Text;-inkscape-font-specification:SF UI Text">We develop software. And people.</tspan></text>
        <text
           xml:space="preserve"
           style="font-size:240.90574646px;font-style:normal;font-variant:normal;font-weight:normal;font-stretch:normal;line-height:125%;letter-spacing:0px;word-spacing:0px;fill:#ffffff;fill-opacity:1;stroke:none;display:inline;font-family:Roboto;-inkscape-font-specification:Roboto"
           x="714.53857"
           y="456.22363"
           id="text4152-4-7-5"
           sodipodi:linespacing="125%"><tspan
             sodipodi:role="line"
             id="tspan4154-8-3-0"
             x="714.53857"
             y="456.22363"
             style="font-size:480px;font-style:normal;font-variant:normal;font-weight:normal;font-stretch:normal;fill:#ffffff;fill-opacity:1;stroke:none;font-family:SF UI Text;-inkscape-font-specification:SF UI Text">Agnium</tspan></text>
      </g>
      <path
         inkscape:connector-curvature="0"
         style="fill:#fefefe;fill-opacity:1;fill-rule:nonzero;stroke:#590b0b;stroke-width:0.23622048;stroke-linecap:butt;stroke-linejoin:miter;stroke-miterlimit:4;stroke-opacity:1;stroke-dasharray:none;stroke-dashoffset:0;display:inline"
         d="m 85.995481,627.64753 c -1.695968,-0.0275 -2.93185,1.86793 -3.81274,5.80493 -5.096221,19.95088 -19.751056,40.79652 -33.394749,57.67286 -13.64367,16.87634 -31.721954,33.84866 -14.999528,65.23607 11.734961,18.76799 28.995166,25.25844 43.479781,27.01587 -3.801567,-2.56844 -7.168111,-5.59278 -9.379607,-9.08987 -8.801764,-13.91846 -5.031685,-27.90816 -5.031685,-27.90816 0,0 10.861276,23.62482 27.314836,30.75295 5.622283,2.43574 10.124501,3.97199 13.949011,4.85498 0,0 54.32561,-16.92288 37.63841,-65.92766 -1.71591,-3.95636 -3.80724,-7.82179 -6.32396,-11.03223 -4.28664,-5.4682 -7.941,-8.54475 -10.67376,-10.27559 -0.64689,3.79516 -1.55757,7.61277 -2.83788,11.01977 -5.004,13.31607 -14.37714,14.16631 -14.37714,14.16631 0,0 8.00069,-0.94941 6.34935,-25.98056 -1.13206,-17.15963 -8.74451,-39.70483 -15.092747,-50.70067 -5.875158,-10.1764 -9.980954,-15.56327 -12.807592,-15.609 z"
         id="rect4149-6" />
      <path
         d="m 90.171765,777.13238 c 5.622284,2.43573 10.124485,3.97172 13.615585,4.93846 0.21947,-0.0533 0.3334,-0.0838 0.3334,-0.0838 0,0 54.32561,-16.92304 37.64035,-65.92211 -1.71785,-3.96207 -3.80904,-7.82712 -6.32578,-11.03756 -4.28664,-5.4682 -7.9409,-8.54503 -10.67367,-10.27587 -0.64689,3.79517 -1.55789,7.61284 -2.83821,11.01984 -5.004,13.31607 -14.37693,14.16648 -14.37693,14.16648 0,0 8.00084,-0.94957 6.3495,-25.98072 -1.13207,-17.15963 -5.86026,-34.83463 -13.76051,-50.32875 -2.974042,-5.83276 -9.604916,-13.59518 -12.291806,-15.3201 4.923189,8.08011 12.336306,22.86178 14.398986,50.71078 4.51826,61.00286 -18.04864,83.44649 -24.600262,88.98311 3.646512,3.76014 7.863024,7.10861 12.529347,9.13019 z"
         id="Path-2-2"
         sketch:type="MSShapeGroup"
         inkscape:connector-curvature="0"
         style="fill:#e4e4e4;fill-opacity:1;fill-rule:evenodd;stroke:#590b0b;stroke-width:0.23622048;stroke-miterlimit:4;stroke-opacity:1;stroke-dasharray:none;display:inline"
         sodipodi:nodetypes="scccscscsacscs" />
      <path
         d="m 103.44119,781.97404 c 0.11648,0.0329 0.23185,0.0652 0.34616,0.0968 l 0,0 c 0.21947,-0.0533 0.3334,-0.0838 0.3334,-0.0838 0,0 54.32561,-16.4506 37.64035,-65.44967 0,-0.002 0,-0.004 -0.002,-0.006 l 0,0 c -1.71588,-3.95636 -3.80709,-8.22266 -6.32383,-11.4331 -3.6301,-4.63069 -7.64573,-8.53217 -10.67388,-10.34693 5.03083,10.70631 12.89282,31.09561 7.01204,49.09671 -6.9369,21.2339 -18.78175,32.13427 -28.33229,38.12565 l 0,0 z"
         id="Path-3-3"
         sketch:type="MSShapeGroup"
         inkscape:connector-curvature="0"
         style="fill:#aaaaaa;fill-opacity:1;fill-rule:evenodd;stroke:#590b0b;stroke-width:0.23622048;stroke-linejoin:bevel;stroke-miterlimit:4;stroke-opacity:1;stroke-dasharray:none;display:inline"
         sodipodi:nodetypes="cccccccscsccc" />
    </g>
  </g>
</svg>
